<?xml version="1.0" encoding="iso-8859-1"?>
<!-- Uploaded to: SVG Repo, www.svgrepo.com, Generator: SVG Repo Mixer Tools -->
<svg version="1.1" id="Layer_1" xmlns="http://www.w3.org/2000/svg" xmlns:xlink="http://www.w3.org/1999/xlink" 
	 viewBox="0 0 511.999 511.999" xml:space="preserve">
<path style="fill:#DCE5FA;" d="M357.382,0H54.545C35.838,0,20.673,15.165,20.673,33.873v444.254
	c0,18.708,15.165,33.873,33.873,33.873h302.838c18.708,0,33.873-15.165,33.873-33.873V33.873C391.255,15.165,376.09,0,357.382,0z"/>
<path style="opacity:0.1;enable-background:new    ;" d="M391.255,99.394c-10.762,2.762-20.632,8.355-28.694,16.417L153.007,325.365
	l-4.738,149.902l149.903-4.736l93.084-93.083V99.394H391.255z"/>
<path style="fill:#FF999A;" d="M483.12,196.748l-56.33-56.33c-10.942-10.942-28.681-10.942-39.622,0l-31.298,31.296l26.653,69.3
	l69.3,26.653l31.298-31.298C494.062,225.429,494.062,207.69,483.12,196.748z"/>
<polygon style="fill:#FFEBBF;" points="184.221,439.317 187.353,340.232 217.138,310.446 313.091,406.399 283.306,436.185 "/>
<polygon style="fill:#FFD782;" points="283.306,436.185 187.353,340.232 315.416,212.169 382.524,241.014 411.369,308.121 "/>
<rect x="315.764" y="211.31" transform="matrix(-0.7071 -0.7071 0.7071 -0.7071 485.226 680.8143)" style="fill:#515262;" width="135.7" height="57.208"/>
<path style="opacity:0.1;enable-background:new    ;" d="M483.12,196.748l-41.01-41.01c10.942,10.942,10.942,28.681,0,39.622
	L242.295,395.174l-56.736,1.793l-1.339,42.348l99.085-3.132L483.119,236.37C494.062,225.429,494.062,207.689,483.12,196.748z"/>
</svg>